<?xml version="1.0" encoding="utf-8"?>
<!-- Generator: Adobe Illustrator 26.5.0, SVG Export Plug-In . SVG Version: 6.00 Build 0)  -->
<svg version="1.1" id="Layer_1" xmlns="http://www.w3.org/2000/svg" xmlns:xlink="http://www.w3.org/1999/xlink" x="0px" y="0px"
	 viewBox="0 0 498.57 431.77" style="enable-background:new 0 0 498.57 431.77;" xml:space="preserve">
<style type="text/css">
	.st0{fill:#FFFFFF;}
	.st1{opacity:0.5;fill:url(#SVGID_1_);}
	.st2{fill:url(#SVGID_00000081620638703540505940000003482793081632325528_);}
	.st3{fill:url(#SVGID_00000094595858629120956200000000192609263531466921_);}
	.st4{fill:url(#SVGID_00000029725689889624329180000016305372734224714115_);}
	.st5{fill:url(#SVGID_00000135690900379795444420000004945677790243020475_);}
	.st6{fill:url(#SVGID_00000047763710095744674330000012769384898878180278_);}
	.st7{fill:url(#SVGID_00000180344301753120733290000011114903650966301112_);}
	.st8{fill:#A2A3A7;}
</style>
<path class="st0" d="M0,0l249.28,431.77L498.57,0H0z"/>
<linearGradient id="SVGID_1_" gradientUnits="userSpaceOnUse" x1="249.2844" y1="426.4942" x2="249.2844" y2="2.6861">
	<stop  offset="0" style="stop-color:#EEDCD5"/>
	<stop  offset="1" style="stop-color:#A2A3A7;stop-opacity:0.1"/>
</linearGradient>
<path class="st1" d="M0,0l249.28,431.77L498.57,0H0z M25.7,14.88h447.17L249.28,402.13L25.7,14.88z"/>
<g>
	
		<linearGradient id="SVGID_00000162320880937586888190000017326441279991583908_" gradientUnits="userSpaceOnUse" x1="139.5229" y1="269.9244" x2="139.5229" y2="115.4635">
		<stop  offset="0" style="stop-color:#A2A3A7"/>
		<stop  offset="1" style="stop-color:#EEDCD5"/>
	</linearGradient>
	<path style="fill:url(#SVGID_00000162320880937586888190000017326441279991583908_);" d="M155.23,199.13h34.98v43.9
		c-4.76,2.67-10.51,4.72-17.27,6.13c-6.76,1.41-13.93,2.12-21.5,2.12c-8.77,0-16.86-1.59-24.29-4.79
		c-7.43-3.19-13.89-7.61-19.39-13.26c-5.5-5.64-9.8-12.29-12.92-19.94c-3.12-7.65-4.68-15.93-4.68-24.85
		c0-8.61,1.41-16.75,4.23-24.4c2.82-7.65,6.83-14.3,12.03-19.94c5.2-5.64,11.44-10.14,18.72-13.48c7.28-3.34,15.45-5.01,24.51-5.01
		c8.02,0,15.67,1.23,22.95,3.68c7.28,2.45,14.18,6.8,20.72,13.04l15.15-16.27c-6.24-6.39-13.96-11.4-23.17-15.04
		c-9.21-3.64-21.1-5.46-35.65-5.46c-12.03,0-23.1,2.12-33.2,6.35c-10.1,4.23-18.76,10.07-25.96,17.49
		c-7.21,7.43-12.85,16.19-16.94,26.29c-4.09,10.1-6.13,21.02-6.13,32.75c0,11.14,1.89,21.73,5.68,31.75s9.28,18.83,16.49,26.4
		c7.2,7.58,16.04,13.59,26.52,18.05c10.47,4.46,22.39,6.68,35.76,6.68c4.75,0,9.84-0.3,15.26-0.89c5.42-0.59,10.77-1.52,16.04-2.79
		c5.27-1.26,10.36-2.79,15.26-4.57c4.9-1.78,9.28-3.86,13.15-6.24v-77.77h-56.38V199.13z"/>
	
		<linearGradient id="SVGID_00000045583616916455260450000002086801855484864664_" gradientUnits="userSpaceOnUse" x1="291.9364" y1="269.9244" x2="291.9364" y2="115.4635">
		<stop  offset="0" style="stop-color:#A2A3A7"/>
		<stop  offset="1" style="stop-color:#EEDCD5"/>
	</linearGradient>
	<polygon style="fill:url(#SVGID_00000045583616916455260450000002086801855484864664_);" points="266.42,109.55 245.03,109.55 
		245.03,267.31 338.84,267.31 338.84,247.26 266.42,247.26 	"/>
	
		<linearGradient id="SVGID_00000030456699472908026530000009902478925849332155_" gradientUnits="userSpaceOnUse" x1="410.8333" y1="269.9244" x2="410.8333" y2="115.4635">
		<stop  offset="0" style="stop-color:#A2A3A7"/>
		<stop  offset="1" style="stop-color:#EEDCD5"/>
	</linearGradient>
	<path style="fill:url(#SVGID_00000030456699472908026530000009902478925849332155_);" d="M486.91,155.67
		c-4.09-10.1-9.73-18.86-16.93-26.29c-7.21-7.43-15.86-13.26-25.96-17.49c-10.1-4.23-21.17-6.35-33.2-6.35
		c-12.03,0-23.1,2.12-33.2,6.35c-10.1,4.23-18.76,10.07-25.96,17.49c-7.21,7.43-12.85,16.19-16.93,26.29
		c-3.89,9.6-5.9,19.95-6.09,31.03h22.73c0.18-7.97,1.56-15.54,4.2-22.68c2.82-7.65,6.83-14.3,12.03-19.94
		c5.2-5.64,11.44-10.14,18.72-13.48c7.28-3.34,15.45-5.01,24.51-5.01c9.06,0,17.23,1.67,24.51,5.01
		c7.28,3.34,13.52,7.84,18.72,13.48c5.2,5.65,9.21,12.29,12.03,19.94c2.82,7.65,4.23,15.79,4.23,24.4c0,8.62-1.41,16.75-4.23,24.4
		c-2.82,7.65-6.83,14.3-12.03,19.94c-5.2,5.65-11.44,10.14-18.72,13.48c-6.85,3.15-14.51,4.79-22.93,4.98v20.06
		c11.42-0.18,21.97-2.27,31.62-6.32c10.1-4.23,18.75-10.06,25.96-17.49c7.2-7.43,12.85-16.19,16.93-26.29
		c4.08-10.1,6.13-21.02,6.13-32.76C493.04,176.7,490.99,165.78,486.91,155.67z"/>
	
		<linearGradient id="SVGID_00000147911151411058519050000009403141381894514309_" gradientUnits="userSpaceOnUse" x1="30.5245" y1="269.9244" x2="30.5245" y2="115.4635">
		<stop  offset="0" style="stop-color:#A2A3A7"/>
		<stop  offset="1" style="stop-color:#EEDCD5"/>
	</linearGradient>
	<polygon style="fill:url(#SVGID_00000147911151411058519050000009403141381894514309_);" points="6.74,227.21 42.75,242.2 
		42.75,242.46 6.74,257.58 6.74,267.19 54.31,267.19 54.31,260.74 15.21,260.74 15.21,260.6 54.31,244.55 54.31,240.25 
		15.21,224.19 15.21,224.06 54.31,224.06 54.31,217.61 6.74,217.61 	"/>
	
		<linearGradient id="SVGID_00000132779404599630204190000007992220132514054835_" gradientUnits="userSpaceOnUse" x1="30.5245" y1="269.9244" x2="30.5245" y2="115.4635">
		<stop  offset="0" style="stop-color:#A2A3A7"/>
		<stop  offset="1" style="stop-color:#EEDCD5"/>
	</linearGradient>
	<path style="fill:url(#SVGID_00000132779404599630204190000007992220132514054835_);" d="M48.33,166.18
		c-2.24-2.17-4.88-3.87-7.93-5.11c-3.05-1.23-6.34-1.85-9.88-1.85c-3.54,0-6.83,0.62-9.88,1.85c-3.05,1.23-5.69,2.93-7.93,5.11
		c-2.24,2.17-4,4.78-5.27,7.83c-1.28,3.05-1.92,6.38-1.92,10.01c0,3.63,0.64,6.97,1.92,10.01c1.28,3.05,3.03,5.66,5.27,7.83
		c2.24,2.17,4.88,3.87,7.93,5.11c3.05,1.23,6.34,1.85,9.88,1.85c3.54,0,6.83-0.62,9.88-1.85c3.05-1.23,5.69-2.93,7.93-5.11
		c2.24-2.17,4-4.78,5.27-7.83c1.28-3.05,1.91-6.38,1.91-10.01c0-3.63-0.64-6.96-1.91-10.01C52.33,170.96,50.57,168.35,48.33,166.18z
		 M47.96,191.4c-1.01,2.2-2.36,4.08-4.07,5.64c-1.7,1.57-3.71,2.78-6.01,3.63c-2.31,0.85-4.76,1.28-7.36,1.28
		c-2.6,0-5.05-0.42-7.36-1.28c-2.31-0.85-4.31-2.06-6.01-3.63c-1.7-1.57-3.06-3.45-4.06-5.64c-1.01-2.19-1.51-4.66-1.51-7.39
		c0-2.73,0.5-5.2,1.51-7.39c1.01-2.19,2.36-4.08,4.06-5.64c1.7-1.57,3.71-2.78,6.01-3.63c2.31-0.85,4.76-1.28,7.36-1.28
		c2.6,0,5.05,0.43,7.36,1.28c2.31,0.85,4.31,2.06,6.01,3.63c1.7,1.57,3.06,3.45,4.07,5.64c1.01,2.2,1.51,4.66,1.51,7.39
		C49.47,186.75,48.97,189.21,47.96,191.4z"/>
	
		<linearGradient id="SVGID_00000111907476663399642620000006091588495983546034_" gradientUnits="userSpaceOnUse" x1="30.5245" y1="269.9244" x2="30.5245" y2="115.4635">
		<stop  offset="0" style="stop-color:#A2A3A7"/>
		<stop  offset="1" style="stop-color:#EEDCD5"/>
	</linearGradient>
	<path style="fill:url(#SVGID_00000111907476663399642620000006091588495983546034_);" d="M54.31,135.51
		c0-4.25-0.67-8.01-2.02-11.25c-1.34-3.25-3.12-5.97-5.34-8.16c-2.22-2.19-4.75-3.85-7.59-4.97c-2.84-1.12-5.79-1.68-8.84-1.68
		c-1.48,0-3.09,0.16-4.84,0.47c-1.75,0.31-3.49,0.83-5.24,1.55c-1.75,0.72-3.45,1.69-5.11,2.92c-1.66,1.23-3.12,2.78-4.4,4.64
		c-1.28,1.86-2.29,4.05-3.06,6.58c-0.76,2.53-1.14,5.48-1.14,8.83v16.6h47.57V135.51z M48.26,144.58H12.79v-9.67
		c0-3.85,0.64-6.99,1.91-9.41c1.28-2.42,2.83-4.31,4.67-5.68c1.84-1.37,3.77-2.29,5.81-2.79c2.04-0.49,3.82-0.74,5.34-0.74
		c2.96,0,5.54,0.54,7.76,1.61c2.22,1.07,4.06,2.53,5.54,4.37c1.48,1.84,2.59,3.98,3.33,6.42c0.74,2.44,1.11,5.03,1.11,7.76V144.58z"
		/>
</g>
<g>
	<g>
		<path class="st8" d="M129.42,314.55c0.76,3.32,2.96,5.3,7.11,5.3c4.58,0,6.31-2.31,6.31-5.01c0-2.85-1.26-4.58-6.78-5.95
			c-5.37-1.33-7.65-3.07-7.65-6.71c0-3.35,2.42-6.46,7.83-6.46c5.59,0,7.94,3.39,8.26,6.49h-2.09c-0.58-2.71-2.31-4.62-6.28-4.62
			c-3.61,0-5.56,1.66-5.56,4.44c0,2.78,1.62,3.86,6.28,4.98c7.11,1.77,8.15,4.62,8.15,7.68c0,3.71-2.71,6.93-8.58,6.93
			c-6.31,0-8.62-3.68-9.09-7.07H129.42z"/>
		<path class="st8" d="M161.35,296.08h2.02v13.09c2.02-1.95,9.16-8.69,13.64-13.09h2.71l-11.29,10.75l11.94,14.5h-2.52l-10.89-13.2
			l-3.57,3.17v10.03h-2.02V296.08z"/>
		<path class="st8" d="M196.77,296.08v25.25h-2.02v-25.25H196.77z"/>
		<path class="st8" d="M214.99,321.33v-25.25h2.96c3.93,6.06,13.06,20.06,14.65,22.8h0.04c-0.22-3.61-0.18-7.32-0.18-11.43v-11.36
			h2.06v25.25h-2.74c-3.75-5.81-13.06-20.42-14.86-23.19h-0.04c0.18,3.28,0.14,7,0.14,11.58v11.62H214.99z"/>
		<path class="st8" d="M255.1,316.25c1.44,2.1,3.69,3.52,6.9,3.52c4.11,0,6.17-2.17,7.43-5.23h2.02c-1.19,4.04-4.15,7.07-9.52,7.07
			c-7.25,0-11.07-5.77-11.07-12.88c0-6.82,3.75-13.02,11.11-13.02c5.48,0,8.69,3.07,9.52,7.29h-2.02c-1.15-3.25-3.25-5.41-7.61-5.41
			c-6.24,0-8.84,5.7-8.84,11.11C253.02,311.39,253.66,314.16,255.1,316.25"/>
		<path class="st8" d="M290.11,312.67l-3.17,8.66h-2.06l9.23-25.25h2.42l9.63,25.25h-2.2l-3.25-8.66H290.11z M300.06,310.79
			c-2.81-7.43-4.22-11.04-4.76-12.77h-0.04c-0.61,1.95-2.2,6.38-4.47,12.77H300.06z"/>
		<path class="st8" d="M323.51,309.57v11.76h-2.06v-25.25h9.09c4.98,0,7.61,2.67,7.61,6.64c0,3.21-1.91,5.3-4.69,5.92
			c2.56,0.61,4.29,2.31,4.29,6.6v0.97c0,1.77-0.14,4.15,0.32,5.12h-2.06c-0.47-1.08-0.36-3.1-0.36-5.27v-0.65
			c0-4.11-1.19-5.84-6.02-5.84H323.51z M323.51,307.73h6.06c4.4,0,6.42-1.66,6.42-4.94c0-3.1-1.98-4.83-5.92-4.83h-6.57V307.73z"/>
		<path class="st8" d="M370.02,308.95h-12.84v10.5h14.07l-0.29,1.88h-15.8v-25.25h15.51v1.88h-13.49v9.13h12.84V308.95z"/>
	</g>
	<rect x="6.74" y="307.7" class="st8" width="89.79" height="2"/>
	<rect x="403.25" y="307.7" class="st8" width="89.79" height="2"/>
</g>
</svg>
